<mxfile host="app.diagrams.net" agent="Mozilla/5.0 (Windows NT 10.0; Win64; x64) AppleWebKit/537.36 (KHTML, like Gecko) Chrome/136.0.0.0 Safari/537.36" version="27.0.2">
  <diagram name="Página-1" id="Fk2J8Lr7IJ6Uw8IWJ-3l">
    <mxGraphModel dx="983" dy="564" grid="1" gridSize="10" guides="1" tooltips="1" connect="1" arrows="1" fold="1" page="1" pageScale="1" pageWidth="827" pageHeight="1169" math="0" shadow="0">
      <root>
        <mxCell id="0" />
        <mxCell id="1" parent="0" />
        <mxCell id="r40MCZZ6CgP2tCvJFXWa-1" value="Pessoa" style="swimlane;fontStyle=1;align=center;verticalAlign=top;childLayout=stackLayout;horizontal=1;startSize=26;horizontalStack=0;resizeParent=1;resizeParentMax=0;resizeLast=0;collapsible=1;marginBottom=0;whiteSpace=wrap;html=1;" parent="1" vertex="1">
          <mxGeometry x="810" y="60" width="160" height="216" as="geometry">
            <mxRectangle x="70" y="50" width="80" height="30" as="alternateBounds" />
          </mxGeometry>
        </mxCell>
        <mxCell id="r40MCZZ6CgP2tCvJFXWa-2" value="+ matrícula (PK): int" style="text;strokeColor=none;fillColor=none;align=left;verticalAlign=top;spacingLeft=4;spacingRight=4;overflow=hidden;rotatable=0;points=[[0,0.5],[1,0.5]];portConstraint=eastwest;whiteSpace=wrap;html=1;" parent="r40MCZZ6CgP2tCvJFXWa-1" vertex="1">
          <mxGeometry y="26" width="160" height="26" as="geometry" />
        </mxCell>
        <mxCell id="r40MCZZ6CgP2tCvJFXWa-7" value="+ nome: str" style="text;strokeColor=none;fillColor=none;align=left;verticalAlign=top;spacingLeft=4;spacingRight=4;overflow=hidden;rotatable=0;points=[[0,0.5],[1,0.5]];portConstraint=eastwest;whiteSpace=wrap;html=1;" parent="r40MCZZ6CgP2tCvJFXWa-1" vertex="1">
          <mxGeometry y="52" width="160" height="26" as="geometry" />
        </mxCell>
        <mxCell id="r40MCZZ6CgP2tCvJFXWa-6" value="+ documento: int" style="text;strokeColor=none;fillColor=none;align=left;verticalAlign=top;spacingLeft=4;spacingRight=4;overflow=hidden;rotatable=0;points=[[0,0.5],[1,0.5]];portConstraint=eastwest;whiteSpace=wrap;html=1;" parent="r40MCZZ6CgP2tCvJFXWa-1" vertex="1">
          <mxGeometry y="78" width="160" height="26" as="geometry" />
        </mxCell>
        <mxCell id="r40MCZZ6CgP2tCvJFXWa-17" value="+ data_nascimento: date" style="text;strokeColor=none;fillColor=none;align=left;verticalAlign=top;spacingLeft=4;spacingRight=4;overflow=hidden;rotatable=0;points=[[0,0.5],[1,0.5]];portConstraint=eastwest;whiteSpace=wrap;html=1;" parent="r40MCZZ6CgP2tCvJFXWa-1" vertex="1">
          <mxGeometry y="104" width="160" height="26" as="geometry" />
        </mxCell>
        <mxCell id="r40MCZZ6CgP2tCvJFXWa-5" value="+ email: str" style="text;strokeColor=none;fillColor=none;align=left;verticalAlign=top;spacingLeft=4;spacingRight=4;overflow=hidden;rotatable=0;points=[[0,0.5],[1,0.5]];portConstraint=eastwest;whiteSpace=wrap;html=1;" parent="r40MCZZ6CgP2tCvJFXWa-1" vertex="1">
          <mxGeometry y="130" width="160" height="26" as="geometry" />
        </mxCell>
        <mxCell id="r40MCZZ6CgP2tCvJFXWa-12" value="+ telefone: int" style="text;strokeColor=none;fillColor=none;align=left;verticalAlign=top;spacingLeft=4;spacingRight=4;overflow=hidden;rotatable=0;points=[[0,0.5],[1,0.5]];portConstraint=eastwest;whiteSpace=wrap;html=1;" parent="r40MCZZ6CgP2tCvJFXWa-1" vertex="1">
          <mxGeometry y="156" width="160" height="26" as="geometry" />
        </mxCell>
        <mxCell id="r40MCZZ6CgP2tCvJFXWa-3" value="" style="line;strokeWidth=1;fillColor=none;align=left;verticalAlign=middle;spacingTop=-1;spacingLeft=3;spacingRight=3;rotatable=0;labelPosition=right;points=[];portConstraint=eastwest;strokeColor=inherit;" parent="r40MCZZ6CgP2tCvJFXWa-1" vertex="1">
          <mxGeometry y="182" width="160" height="8" as="geometry" />
        </mxCell>
        <mxCell id="r40MCZZ6CgP2tCvJFXWa-4" value="+ exibir_detalhes()" style="text;strokeColor=none;fillColor=none;align=left;verticalAlign=top;spacingLeft=4;spacingRight=4;overflow=hidden;rotatable=0;points=[[0,0.5],[1,0.5]];portConstraint=eastwest;whiteSpace=wrap;html=1;" parent="r40MCZZ6CgP2tCvJFXWa-1" vertex="1">
          <mxGeometry y="190" width="160" height="26" as="geometry" />
        </mxCell>
        <mxCell id="r40MCZZ6CgP2tCvJFXWa-13" value="Cliente" style="swimlane;fontStyle=1;align=center;verticalAlign=top;childLayout=stackLayout;horizontal=1;startSize=26;horizontalStack=0;resizeParent=1;resizeParentMax=0;resizeLast=0;collapsible=1;marginBottom=0;whiteSpace=wrap;html=1;" parent="1" vertex="1">
          <mxGeometry x="924" y="334.67" width="160" height="112" as="geometry" />
        </mxCell>
        <mxCell id="r40MCZZ6CgP2tCvJFXWa-14" value="+ endereco: str" style="text;strokeColor=none;fillColor=none;align=left;verticalAlign=top;spacingLeft=4;spacingRight=4;overflow=hidden;rotatable=0;points=[[0,0.5],[1,0.5]];portConstraint=eastwest;whiteSpace=wrap;html=1;" parent="r40MCZZ6CgP2tCvJFXWa-13" vertex="1">
          <mxGeometry y="26" width="160" height="26" as="geometry" />
        </mxCell>
        <mxCell id="r40MCZZ6CgP2tCvJFXWa-23" value="+ data_registro: date" style="text;strokeColor=none;fillColor=none;align=left;verticalAlign=top;spacingLeft=4;spacingRight=4;overflow=hidden;rotatable=0;points=[[0,0.5],[1,0.5]];portConstraint=eastwest;whiteSpace=wrap;html=1;" parent="r40MCZZ6CgP2tCvJFXWa-13" vertex="1">
          <mxGeometry y="52" width="160" height="26" as="geometry" />
        </mxCell>
        <mxCell id="r40MCZZ6CgP2tCvJFXWa-15" value="" style="line;strokeWidth=1;fillColor=none;align=left;verticalAlign=middle;spacingTop=-1;spacingLeft=3;spacingRight=3;rotatable=0;labelPosition=right;points=[];portConstraint=eastwest;strokeColor=inherit;" parent="r40MCZZ6CgP2tCvJFXWa-13" vertex="1">
          <mxGeometry y="78" width="160" height="8" as="geometry" />
        </mxCell>
        <mxCell id="r40MCZZ6CgP2tCvJFXWa-16" value="+ exibir_detalhes()" style="text;strokeColor=none;fillColor=none;align=left;verticalAlign=top;spacingLeft=4;spacingRight=4;overflow=hidden;rotatable=0;points=[[0,0.5],[1,0.5]];portConstraint=eastwest;whiteSpace=wrap;html=1;" parent="r40MCZZ6CgP2tCvJFXWa-13" vertex="1">
          <mxGeometry y="86" width="160" height="26" as="geometry" />
        </mxCell>
        <mxCell id="r40MCZZ6CgP2tCvJFXWa-18" value="Autor" style="swimlane;fontStyle=1;align=center;verticalAlign=top;childLayout=stackLayout;horizontal=1;startSize=26;horizontalStack=0;resizeParent=1;resizeParentMax=0;resizeLast=0;collapsible=1;marginBottom=0;whiteSpace=wrap;html=1;" parent="1" vertex="1">
          <mxGeometry x="690" y="334.67" width="160" height="86" as="geometry" />
        </mxCell>
        <mxCell id="r40MCZZ6CgP2tCvJFXWa-19" value="+ nacionalidade: str" style="text;strokeColor=none;fillColor=none;align=left;verticalAlign=top;spacingLeft=4;spacingRight=4;overflow=hidden;rotatable=0;points=[[0,0.5],[1,0.5]];portConstraint=eastwest;whiteSpace=wrap;html=1;" parent="r40MCZZ6CgP2tCvJFXWa-18" vertex="1">
          <mxGeometry y="26" width="160" height="26" as="geometry" />
        </mxCell>
        <mxCell id="r40MCZZ6CgP2tCvJFXWa-20" value="" style="line;strokeWidth=1;fillColor=none;align=left;verticalAlign=middle;spacingTop=-1;spacingLeft=3;spacingRight=3;rotatable=0;labelPosition=right;points=[];portConstraint=eastwest;strokeColor=inherit;" parent="r40MCZZ6CgP2tCvJFXWa-18" vertex="1">
          <mxGeometry y="52" width="160" height="8" as="geometry" />
        </mxCell>
        <mxCell id="r40MCZZ6CgP2tCvJFXWa-21" value="+ exibir_detalhes()" style="text;strokeColor=none;fillColor=none;align=left;verticalAlign=top;spacingLeft=4;spacingRight=4;overflow=hidden;rotatable=0;points=[[0,0.5],[1,0.5]];portConstraint=eastwest;whiteSpace=wrap;html=1;" parent="r40MCZZ6CgP2tCvJFXWa-18" vertex="1">
          <mxGeometry y="60" width="160" height="26" as="geometry" />
        </mxCell>
        <mxCell id="r40MCZZ6CgP2tCvJFXWa-24" value="Empréstimo" style="swimlane;fontStyle=1;align=center;verticalAlign=top;childLayout=stackLayout;horizontal=1;startSize=26;horizontalStack=0;resizeParent=1;resizeParentMax=0;resizeLast=0;collapsible=1;marginBottom=0;whiteSpace=wrap;html=1;" parent="1" vertex="1">
          <mxGeometry x="924" y="540" width="160" height="156" as="geometry" />
        </mxCell>
        <mxCell id="r40MCZZ6CgP2tCvJFXWa-25" value="+ id_emprestimo (PK): int" style="text;strokeColor=none;fillColor=none;align=left;verticalAlign=top;spacingLeft=4;spacingRight=4;overflow=hidden;rotatable=0;points=[[0,0.5],[1,0.5]];portConstraint=eastwest;whiteSpace=wrap;html=1;" parent="r40MCZZ6CgP2tCvJFXWa-24" vertex="1">
          <mxGeometry y="26" width="160" height="26" as="geometry" />
        </mxCell>
        <mxCell id="r40MCZZ6CgP2tCvJFXWa-28" value="+ data_emprestimo: date" style="text;strokeColor=none;fillColor=none;align=left;verticalAlign=top;spacingLeft=4;spacingRight=4;overflow=hidden;rotatable=0;points=[[0,0.5],[1,0.5]];portConstraint=eastwest;whiteSpace=wrap;html=1;" parent="r40MCZZ6CgP2tCvJFXWa-24" vertex="1">
          <mxGeometry y="52" width="160" height="26" as="geometry" />
        </mxCell>
        <mxCell id="r40MCZZ6CgP2tCvJFXWa-29" value="+ data_devolucao: date&lt;div&gt;&lt;br&gt;&lt;/div&gt;" style="text;strokeColor=none;fillColor=none;align=left;verticalAlign=top;spacingLeft=4;spacingRight=4;overflow=hidden;rotatable=0;points=[[0,0.5],[1,0.5]];portConstraint=eastwest;whiteSpace=wrap;html=1;" parent="r40MCZZ6CgP2tCvJFXWa-24" vertex="1">
          <mxGeometry y="78" width="160" height="26" as="geometry" />
        </mxCell>
        <mxCell id="r40MCZZ6CgP2tCvJFXWa-30" value="+ matricula (FK): int" style="text;strokeColor=none;fillColor=none;align=left;verticalAlign=top;spacingLeft=4;spacingRight=4;overflow=hidden;rotatable=0;points=[[0,0.5],[1,0.5]];portConstraint=eastwest;whiteSpace=wrap;html=1;" parent="r40MCZZ6CgP2tCvJFXWa-24" vertex="1">
          <mxGeometry y="104" width="160" height="26" as="geometry" />
        </mxCell>
        <mxCell id="r40MCZZ6CgP2tCvJFXWa-31" value="+ isbn (FK): int" style="text;strokeColor=none;fillColor=none;align=left;verticalAlign=top;spacingLeft=4;spacingRight=4;overflow=hidden;rotatable=0;points=[[0,0.5],[1,0.5]];portConstraint=eastwest;whiteSpace=wrap;html=1;" parent="r40MCZZ6CgP2tCvJFXWa-24" vertex="1">
          <mxGeometry y="130" width="160" height="26" as="geometry" />
        </mxCell>
        <mxCell id="r40MCZZ6CgP2tCvJFXWa-32" value="Livro" style="swimlane;fontStyle=1;align=center;verticalAlign=top;childLayout=stackLayout;horizontal=1;startSize=26;horizontalStack=0;resizeParent=1;resizeParentMax=0;resizeLast=0;collapsible=1;marginBottom=0;whiteSpace=wrap;html=1;" parent="1" vertex="1">
          <mxGeometry x="810" y="760" width="160" height="216" as="geometry" />
        </mxCell>
        <mxCell id="r40MCZZ6CgP2tCvJFXWa-33" value="+ isbn (PK): int" style="text;strokeColor=none;fillColor=none;align=left;verticalAlign=top;spacingLeft=4;spacingRight=4;overflow=hidden;rotatable=0;points=[[0,0.5],[1,0.5]];portConstraint=eastwest;whiteSpace=wrap;html=1;" parent="r40MCZZ6CgP2tCvJFXWa-32" vertex="1">
          <mxGeometry y="26" width="160" height="26" as="geometry" />
        </mxCell>
        <mxCell id="r40MCZZ6CgP2tCvJFXWa-34" value="+ titulo: str" style="text;strokeColor=none;fillColor=none;align=left;verticalAlign=top;spacingLeft=4;spacingRight=4;overflow=hidden;rotatable=0;points=[[0,0.5],[1,0.5]];portConstraint=eastwest;whiteSpace=wrap;html=1;" parent="r40MCZZ6CgP2tCvJFXWa-32" vertex="1">
          <mxGeometry y="52" width="160" height="26" as="geometry" />
        </mxCell>
        <mxCell id="r40MCZZ6CgP2tCvJFXWa-35" value="+ ano_publicacao: str" style="text;strokeColor=none;fillColor=none;align=left;verticalAlign=top;spacingLeft=4;spacingRight=4;overflow=hidden;rotatable=0;points=[[0,0.5],[1,0.5]];portConstraint=eastwest;whiteSpace=wrap;html=1;" parent="r40MCZZ6CgP2tCvJFXWa-32" vertex="1">
          <mxGeometry y="78" width="160" height="26" as="geometry" />
        </mxCell>
        <mxCell id="r40MCZZ6CgP2tCvJFXWa-37" value="+ genero: str" style="text;strokeColor=none;fillColor=none;align=left;verticalAlign=top;spacingLeft=4;spacingRight=4;overflow=hidden;rotatable=0;points=[[0,0.5],[1,0.5]];portConstraint=eastwest;whiteSpace=wrap;html=1;" parent="r40MCZZ6CgP2tCvJFXWa-32" vertex="1">
          <mxGeometry y="104" width="160" height="26" as="geometry" />
        </mxCell>
        <mxCell id="r40MCZZ6CgP2tCvJFXWa-48" value="+ __status:&amp;nbsp;boolean" style="text;strokeColor=none;fillColor=none;align=left;verticalAlign=top;spacingLeft=4;spacingRight=4;overflow=hidden;rotatable=0;points=[[0,0.5],[1,0.5]];portConstraint=eastwest;whiteSpace=wrap;html=1;" parent="r40MCZZ6CgP2tCvJFXWa-32" vertex="1">
          <mxGeometry y="130" width="160" height="26" as="geometry" />
        </mxCell>
        <mxCell id="r40MCZZ6CgP2tCvJFXWa-38" value="" style="line;strokeWidth=1;fillColor=none;align=left;verticalAlign=middle;spacingTop=-1;spacingLeft=3;spacingRight=3;rotatable=0;labelPosition=right;points=[];portConstraint=eastwest;strokeColor=inherit;" parent="r40MCZZ6CgP2tCvJFXWa-32" vertex="1">
          <mxGeometry y="156" width="160" height="8" as="geometry" />
        </mxCell>
        <mxCell id="r40MCZZ6CgP2tCvJFXWa-115" value="+ get_status()" style="text;strokeColor=none;fillColor=none;align=left;verticalAlign=top;spacingLeft=4;spacingRight=4;overflow=hidden;rotatable=0;points=[[0,0.5],[1,0.5]];portConstraint=eastwest;whiteSpace=wrap;html=1;" parent="r40MCZZ6CgP2tCvJFXWa-32" vertex="1">
          <mxGeometry y="164" width="160" height="26" as="geometry" />
        </mxCell>
        <mxCell id="r40MCZZ6CgP2tCvJFXWa-117" value="+ set_status()" style="text;strokeColor=none;fillColor=none;align=left;verticalAlign=top;spacingLeft=4;spacingRight=4;overflow=hidden;rotatable=0;points=[[0,0.5],[1,0.5]];portConstraint=eastwest;whiteSpace=wrap;html=1;" parent="r40MCZZ6CgP2tCvJFXWa-32" vertex="1">
          <mxGeometry y="190" width="160" height="26" as="geometry" />
        </mxCell>
        <mxCell id="r40MCZZ6CgP2tCvJFXWa-41" value="Livro_Autor" style="swimlane;fontStyle=1;align=center;verticalAlign=top;childLayout=stackLayout;horizontal=1;startSize=26;horizontalStack=0;resizeParent=1;resizeParentMax=0;resizeLast=0;collapsible=1;marginBottom=0;whiteSpace=wrap;html=1;" parent="1" vertex="1">
          <mxGeometry x="680" y="540" width="160" height="78" as="geometry" />
        </mxCell>
        <mxCell id="r40MCZZ6CgP2tCvJFXWa-42" value="+ isbn (FK): int" style="text;strokeColor=none;fillColor=none;align=left;verticalAlign=top;spacingLeft=4;spacingRight=4;overflow=hidden;rotatable=0;points=[[0,0.5],[1,0.5]];portConstraint=eastwest;whiteSpace=wrap;html=1;" parent="r40MCZZ6CgP2tCvJFXWa-41" vertex="1">
          <mxGeometry y="26" width="160" height="26" as="geometry" />
        </mxCell>
        <mxCell id="r40MCZZ6CgP2tCvJFXWa-43" value="+ matrícula (FK): int" style="text;strokeColor=none;fillColor=none;align=left;verticalAlign=top;spacingLeft=4;spacingRight=4;overflow=hidden;rotatable=0;points=[[0,0.5],[1,0.5]];portConstraint=eastwest;whiteSpace=wrap;html=1;" parent="r40MCZZ6CgP2tCvJFXWa-41" vertex="1">
          <mxGeometry y="52" width="160" height="26" as="geometry" />
        </mxCell>
        <mxCell id="r40MCZZ6CgP2tCvJFXWa-62" value="" style="group" parent="1" vertex="1" connectable="0">
          <mxGeometry x="770" y="277.99600000000004" width="240" height="56.67399999999998" as="geometry" />
        </mxCell>
        <mxCell id="r40MCZZ6CgP2tCvJFXWa-61" value="" style="endArrow=block;endSize=16;endFill=0;html=1;rounded=0;entryX=0.442;entryY=1.051;entryDx=0;entryDy=0;entryPerimeter=0;" parent="r40MCZZ6CgP2tCvJFXWa-62" edge="1">
          <mxGeometry x="-0.0186" width="160" relative="1" as="geometry">
            <mxPoint x="119" y="36.67399999999998" as="sourcePoint" />
            <mxPoint x="119.72000000000003" as="targetPoint" />
            <mxPoint as="offset" />
          </mxGeometry>
        </mxCell>
        <mxCell id="r40MCZZ6CgP2tCvJFXWa-56" value="" style="endArrow=none;html=1;rounded=0;" parent="r40MCZZ6CgP2tCvJFXWa-62" edge="1">
          <mxGeometry width="50" height="50" relative="1" as="geometry">
            <mxPoint y="36.67399999999998" as="sourcePoint" />
            <mxPoint x="240" y="36.67399999999998" as="targetPoint" />
          </mxGeometry>
        </mxCell>
        <mxCell id="r40MCZZ6CgP2tCvJFXWa-57" value="" style="endArrow=none;html=1;rounded=0;startFill=0;" parent="r40MCZZ6CgP2tCvJFXWa-62" edge="1">
          <mxGeometry width="50" height="50" relative="1" as="geometry">
            <mxPoint y="36.67399999999998" as="sourcePoint" />
            <mxPoint y="56.67399999999998" as="targetPoint" />
          </mxGeometry>
        </mxCell>
        <mxCell id="r40MCZZ6CgP2tCvJFXWa-59" value="" style="endArrow=none;html=1;rounded=0;startFill=0;" parent="r40MCZZ6CgP2tCvJFXWa-62" edge="1">
          <mxGeometry width="50" height="50" relative="1" as="geometry">
            <mxPoint x="240" y="36.67399999999998" as="sourcePoint" />
            <mxPoint x="240" y="56.67399999999998" as="targetPoint" />
          </mxGeometry>
        </mxCell>
        <mxCell id="r40MCZZ6CgP2tCvJFXWa-87" value="0..*" style="endArrow=none;html=1;endSize=12;startArrow=diamondThin;startSize=14;startFill=0;edgeStyle=orthogonalEdgeStyle;align=left;verticalAlign=bottom;rounded=0;entryX=0.5;entryY=0;entryDx=0;entryDy=0;exitX=0.507;exitY=1.093;exitDx=0;exitDy=0;exitPerimeter=0;" parent="1" source="r40MCZZ6CgP2tCvJFXWa-21" target="r40MCZZ6CgP2tCvJFXWa-41" edge="1">
          <mxGeometry x="-0.6581" y="10" relative="1" as="geometry">
            <mxPoint x="770" y="446.6700000000001" as="sourcePoint" />
            <mxPoint x="770" y="504.66999999999996" as="targetPoint" />
            <Array as="points">
              <mxPoint x="771" y="531" />
              <mxPoint x="770" y="540" />
            </Array>
            <mxPoint as="offset" />
          </mxGeometry>
        </mxCell>
        <mxCell id="r40MCZZ6CgP2tCvJFXWa-88" value="0..*" style="endArrow=none;html=1;endSize=12;startArrow=diamondThin;startSize=14;startFill=0;edgeStyle=orthogonalEdgeStyle;align=left;verticalAlign=bottom;rounded=0;entryX=0.507;entryY=1.035;entryDx=0;entryDy=0;entryPerimeter=0;exitX=0;exitY=0.5;exitDx=0;exitDy=0;" parent="1" source="r40MCZZ6CgP2tCvJFXWa-48" target="r40MCZZ6CgP2tCvJFXWa-43" edge="1">
          <mxGeometry x="-0.7761" y="-13" relative="1" as="geometry">
            <mxPoint x="870" y="1154.67" as="sourcePoint" />
            <mxPoint x="760.96" y="652.988" as="targetPoint" />
            <Array as="points">
              <mxPoint x="760" y="903" />
              <mxPoint x="760" y="807" />
            </Array>
            <mxPoint as="offset" />
          </mxGeometry>
        </mxCell>
        <mxCell id="r40MCZZ6CgP2tCvJFXWa-89" value="" style="endArrow=none;html=1;edgeStyle=orthogonalEdgeStyle;rounded=0;entryX=0.5;entryY=0;entryDx=0;entryDy=0;exitX=0.503;exitY=0.99;exitDx=0;exitDy=0;exitPerimeter=0;" parent="1" target="r40MCZZ6CgP2tCvJFXWa-24" edge="1" source="r40MCZZ6CgP2tCvJFXWa-16">
          <mxGeometry relative="1" as="geometry">
            <mxPoint x="1004" y="552.67" as="sourcePoint" />
            <mxPoint x="1009" y="599.67" as="targetPoint" />
          </mxGeometry>
        </mxCell>
        <mxCell id="r40MCZZ6CgP2tCvJFXWa-90" value="0..*" style="edgeLabel;resizable=0;html=1;align=left;verticalAlign=bottom;" parent="r40MCZZ6CgP2tCvJFXWa-89" connectable="0" vertex="1">
          <mxGeometry x="-1" relative="1" as="geometry">
            <mxPoint x="2" y="18" as="offset" />
          </mxGeometry>
        </mxCell>
        <mxCell id="r40MCZZ6CgP2tCvJFXWa-91" value="1" style="edgeLabel;resizable=0;html=1;align=right;verticalAlign=bottom;" parent="r40MCZZ6CgP2tCvJFXWa-89" connectable="0" vertex="1">
          <mxGeometry x="1" relative="1" as="geometry">
            <mxPoint x="11" as="offset" />
          </mxGeometry>
        </mxCell>
        <mxCell id="r40MCZZ6CgP2tCvJFXWa-92" value="" style="endArrow=none;html=1;edgeStyle=orthogonalEdgeStyle;rounded=0;entryX=0.472;entryY=1.112;entryDx=0;entryDy=0;entryPerimeter=0;exitX=1;exitY=0.5;exitDx=0;exitDy=0;" parent="1" target="r40MCZZ6CgP2tCvJFXWa-31" edge="1" source="r40MCZZ6CgP2tCvJFXWa-48">
          <mxGeometry relative="1" as="geometry">
            <mxPoint x="1005" y="984.67" as="sourcePoint" />
            <mxPoint x="1005.2800000000002" y="830.9939999999999" as="targetPoint" />
            <Array as="points">
              <mxPoint x="1000" y="903" />
            </Array>
          </mxGeometry>
        </mxCell>
        <mxCell id="r40MCZZ6CgP2tCvJFXWa-93" value="1" style="edgeLabel;resizable=0;html=1;align=left;verticalAlign=bottom;" parent="r40MCZZ6CgP2tCvJFXWa-92" connectable="0" vertex="1">
          <mxGeometry x="-1" relative="1" as="geometry">
            <mxPoint x="10" y="-3" as="offset" />
          </mxGeometry>
        </mxCell>
        <mxCell id="r40MCZZ6CgP2tCvJFXWa-94" value="0..*" style="edgeLabel;resizable=0;html=1;align=right;verticalAlign=bottom;" parent="r40MCZZ6CgP2tCvJFXWa-92" connectable="0" vertex="1">
          <mxGeometry x="1" relative="1" as="geometry">
            <mxPoint x="20" y="24" as="offset" />
          </mxGeometry>
        </mxCell>
        <mxCell id="psiIoG4BXNIrnxoSM1xr-1" value="Biblioteca" style="swimlane;fontStyle=1;align=center;verticalAlign=top;childLayout=stackLayout;horizontal=1;startSize=26;horizontalStack=0;resizeParent=1;resizeParentMax=0;resizeLast=0;collapsible=1;marginBottom=0;whiteSpace=wrap;html=1;" vertex="1" parent="1">
          <mxGeometry x="410" y="150" width="210" height="686" as="geometry">
            <mxRectangle x="70" y="50" width="80" height="30" as="alternateBounds" />
          </mxGeometry>
        </mxCell>
        <mxCell id="psiIoG4BXNIrnxoSM1xr-2" value="+ nome_biblioteca: cls" style="text;strokeColor=none;fillColor=none;align=left;verticalAlign=top;spacingLeft=4;spacingRight=4;overflow=hidden;rotatable=0;points=[[0,0.5],[1,0.5]];portConstraint=eastwest;whiteSpace=wrap;html=1;" vertex="1" parent="psiIoG4BXNIrnxoSM1xr-1">
          <mxGeometry y="26" width="210" height="26" as="geometry" />
        </mxCell>
        <mxCell id="psiIoG4BXNIrnxoSM1xr-9" value="" style="line;strokeWidth=1;fillColor=none;align=left;verticalAlign=middle;spacingTop=-1;spacingLeft=3;spacingRight=3;rotatable=0;labelPosition=right;points=[];portConstraint=eastwest;strokeColor=inherit;" vertex="1" parent="psiIoG4BXNIrnxoSM1xr-1">
          <mxGeometry y="52" width="210" height="8" as="geometry" />
        </mxCell>
        <mxCell id="psiIoG4BXNIrnxoSM1xr-10" value="+ get_biblioteca()" style="text;strokeColor=none;fillColor=none;align=left;verticalAlign=top;spacingLeft=4;spacingRight=4;overflow=hidden;rotatable=0;points=[[0,0.5],[1,0.5]];portConstraint=eastwest;whiteSpace=wrap;html=1;" vertex="1" parent="psiIoG4BXNIrnxoSM1xr-1">
          <mxGeometry y="60" width="210" height="26" as="geometry" />
        </mxCell>
        <mxCell id="psiIoG4BXNIrnxoSM1xr-11" value="+ set_biblioteca()&lt;div&gt;&lt;br/&gt;&lt;/div&gt;" style="text;strokeColor=none;fillColor=none;align=left;verticalAlign=top;spacingLeft=4;spacingRight=4;overflow=hidden;rotatable=0;points=[[0,0.5],[1,0.5]];portConstraint=eastwest;whiteSpace=wrap;html=1;" vertex="1" parent="psiIoG4BXNIrnxoSM1xr-1">
          <mxGeometry y="86" width="210" height="26" as="geometry" />
        </mxCell>
        <mxCell id="psiIoG4BXNIrnxoSM1xr-12" value="+ criar_autor()&lt;div&gt;&lt;br&gt;&lt;/div&gt;" style="text;strokeColor=none;fillColor=none;align=left;verticalAlign=top;spacingLeft=4;spacingRight=4;overflow=hidden;rotatable=0;points=[[0,0.5],[1,0.5]];portConstraint=eastwest;whiteSpace=wrap;html=1;" vertex="1" parent="psiIoG4BXNIrnxoSM1xr-1">
          <mxGeometry y="112" width="210" height="26" as="geometry" />
        </mxCell>
        <mxCell id="psiIoG4BXNIrnxoSM1xr-13" value="+ listar_autor()&lt;div&gt;&lt;br&gt;&lt;/div&gt;" style="text;strokeColor=none;fillColor=none;align=left;verticalAlign=top;spacingLeft=4;spacingRight=4;overflow=hidden;rotatable=0;points=[[0,0.5],[1,0.5]];portConstraint=eastwest;whiteSpace=wrap;html=1;" vertex="1" parent="psiIoG4BXNIrnxoSM1xr-1">
          <mxGeometry y="138" width="210" height="26" as="geometry" />
        </mxCell>
        <mxCell id="psiIoG4BXNIrnxoSM1xr-14" value="+ atualizar_autor()&lt;div&gt;&lt;br&gt;&lt;/div&gt;" style="text;strokeColor=none;fillColor=none;align=left;verticalAlign=top;spacingLeft=4;spacingRight=4;overflow=hidden;rotatable=0;points=[[0,0.5],[1,0.5]];portConstraint=eastwest;whiteSpace=wrap;html=1;" vertex="1" parent="psiIoG4BXNIrnxoSM1xr-1">
          <mxGeometry y="164" width="210" height="26" as="geometry" />
        </mxCell>
        <mxCell id="psiIoG4BXNIrnxoSM1xr-15" value="+ deletar_autor()&lt;div&gt;&lt;br&gt;&lt;/div&gt;" style="text;strokeColor=none;fillColor=none;align=left;verticalAlign=top;spacingLeft=4;spacingRight=4;overflow=hidden;rotatable=0;points=[[0,0.5],[1,0.5]];portConstraint=eastwest;whiteSpace=wrap;html=1;" vertex="1" parent="psiIoG4BXNIrnxoSM1xr-1">
          <mxGeometry y="190" width="210" height="26" as="geometry" />
        </mxCell>
        <mxCell id="psiIoG4BXNIrnxoSM1xr-16" value="+ listar_livros_autor()&lt;div&gt;&lt;br&gt;&lt;/div&gt;" style="text;strokeColor=none;fillColor=none;align=left;verticalAlign=top;spacingLeft=4;spacingRight=4;overflow=hidden;rotatable=0;points=[[0,0.5],[1,0.5]];portConstraint=eastwest;whiteSpace=wrap;html=1;" vertex="1" parent="psiIoG4BXNIrnxoSM1xr-1">
          <mxGeometry y="216" width="210" height="26" as="geometry" />
        </mxCell>
        <mxCell id="psiIoG4BXNIrnxoSM1xr-17" value="+ criar_cliente()&lt;div&gt;&lt;br&gt;&lt;/div&gt;" style="text;strokeColor=none;fillColor=none;align=left;verticalAlign=top;spacingLeft=4;spacingRight=4;overflow=hidden;rotatable=0;points=[[0,0.5],[1,0.5]];portConstraint=eastwest;whiteSpace=wrap;html=1;" vertex="1" parent="psiIoG4BXNIrnxoSM1xr-1">
          <mxGeometry y="242" width="210" height="26" as="geometry" />
        </mxCell>
        <mxCell id="psiIoG4BXNIrnxoSM1xr-18" value="+ listar_cliente()&lt;div&gt;&lt;br&gt;&lt;/div&gt;" style="text;strokeColor=none;fillColor=none;align=left;verticalAlign=top;spacingLeft=4;spacingRight=4;overflow=hidden;rotatable=0;points=[[0,0.5],[1,0.5]];portConstraint=eastwest;whiteSpace=wrap;html=1;" vertex="1" parent="psiIoG4BXNIrnxoSM1xr-1">
          <mxGeometry y="268" width="210" height="26" as="geometry" />
        </mxCell>
        <mxCell id="psiIoG4BXNIrnxoSM1xr-19" value="+ atualizar_cliente()&lt;div&gt;&lt;br&gt;&lt;/div&gt;" style="text;strokeColor=none;fillColor=none;align=left;verticalAlign=top;spacingLeft=4;spacingRight=4;overflow=hidden;rotatable=0;points=[[0,0.5],[1,0.5]];portConstraint=eastwest;whiteSpace=wrap;html=1;" vertex="1" parent="psiIoG4BXNIrnxoSM1xr-1">
          <mxGeometry y="294" width="210" height="26" as="geometry" />
        </mxCell>
        <mxCell id="psiIoG4BXNIrnxoSM1xr-20" value="+ deletar_cliente()&lt;div&gt;&lt;br&gt;&lt;/div&gt;" style="text;strokeColor=none;fillColor=none;align=left;verticalAlign=top;spacingLeft=4;spacingRight=4;overflow=hidden;rotatable=0;points=[[0,0.5],[1,0.5]];portConstraint=eastwest;whiteSpace=wrap;html=1;" vertex="1" parent="psiIoG4BXNIrnxoSM1xr-1">
          <mxGeometry y="320" width="210" height="26" as="geometry" />
        </mxCell>
        <mxCell id="psiIoG4BXNIrnxoSM1xr-21" value="+ listar_emprestimos_clientes()&lt;div&gt;&lt;br&gt;&lt;/div&gt;" style="text;strokeColor=none;fillColor=none;align=left;verticalAlign=top;spacingLeft=4;spacingRight=4;overflow=hidden;rotatable=0;points=[[0,0.5],[1,0.5]];portConstraint=eastwest;whiteSpace=wrap;html=1;" vertex="1" parent="psiIoG4BXNIrnxoSM1xr-1">
          <mxGeometry y="346" width="210" height="26" as="geometry" />
        </mxCell>
        <mxCell id="psiIoG4BXNIrnxoSM1xr-22" value="+ criar_livro()&lt;div&gt;&lt;br&gt;&lt;/div&gt;" style="text;strokeColor=none;fillColor=none;align=left;verticalAlign=top;spacingLeft=4;spacingRight=4;overflow=hidden;rotatable=0;points=[[0,0.5],[1,0.5]];portConstraint=eastwest;whiteSpace=wrap;html=1;" vertex="1" parent="psiIoG4BXNIrnxoSM1xr-1">
          <mxGeometry y="372" width="210" height="28" as="geometry" />
        </mxCell>
        <mxCell id="psiIoG4BXNIrnxoSM1xr-23" value="+ listar_livro()&lt;div&gt;&lt;br&gt;&lt;/div&gt;" style="text;strokeColor=none;fillColor=none;align=left;verticalAlign=top;spacingLeft=4;spacingRight=4;overflow=hidden;rotatable=0;points=[[0,0.5],[1,0.5]];portConstraint=eastwest;whiteSpace=wrap;html=1;" vertex="1" parent="psiIoG4BXNIrnxoSM1xr-1">
          <mxGeometry y="400" width="210" height="26" as="geometry" />
        </mxCell>
        <mxCell id="psiIoG4BXNIrnxoSM1xr-24" value="+ atualizar_livro()&lt;div&gt;&lt;br&gt;&lt;/div&gt;" style="text;strokeColor=none;fillColor=none;align=left;verticalAlign=top;spacingLeft=4;spacingRight=4;overflow=hidden;rotatable=0;points=[[0,0.5],[1,0.5]];portConstraint=eastwest;whiteSpace=wrap;html=1;" vertex="1" parent="psiIoG4BXNIrnxoSM1xr-1">
          <mxGeometry y="426" width="210" height="26" as="geometry" />
        </mxCell>
        <mxCell id="psiIoG4BXNIrnxoSM1xr-25" value="+ deletar_livro()&lt;div&gt;&lt;br&gt;&lt;/div&gt;" style="text;strokeColor=none;fillColor=none;align=left;verticalAlign=top;spacingLeft=4;spacingRight=4;overflow=hidden;rotatable=0;points=[[0,0.5],[1,0.5]];portConstraint=eastwest;whiteSpace=wrap;html=1;" vertex="1" parent="psiIoG4BXNIrnxoSM1xr-1">
          <mxGeometry y="452" width="210" height="26" as="geometry" />
        </mxCell>
        <mxCell id="psiIoG4BXNIrnxoSM1xr-26" value="+ emprestar_livro()&lt;div&gt;&lt;br&gt;&lt;/div&gt;" style="text;strokeColor=none;fillColor=none;align=left;verticalAlign=top;spacingLeft=4;spacingRight=4;overflow=hidden;rotatable=0;points=[[0,0.5],[1,0.5]];portConstraint=eastwest;whiteSpace=wrap;html=1;" vertex="1" parent="psiIoG4BXNIrnxoSM1xr-1">
          <mxGeometry y="478" width="210" height="26" as="geometry" />
        </mxCell>
        <mxCell id="psiIoG4BXNIrnxoSM1xr-27" value="+ devolver_livro()&lt;div&gt;&lt;br&gt;&lt;/div&gt;" style="text;strokeColor=none;fillColor=none;align=left;verticalAlign=top;spacingLeft=4;spacingRight=4;overflow=hidden;rotatable=0;points=[[0,0.5],[1,0.5]];portConstraint=eastwest;whiteSpace=wrap;html=1;" vertex="1" parent="psiIoG4BXNIrnxoSM1xr-1">
          <mxGeometry y="504" width="210" height="26" as="geometry" />
        </mxCell>
        <mxCell id="psiIoG4BXNIrnxoSM1xr-28" value="+ listar_autores_livro()&lt;div&gt;&lt;br&gt;&lt;/div&gt;" style="text;strokeColor=none;fillColor=none;align=left;verticalAlign=top;spacingLeft=4;spacingRight=4;overflow=hidden;rotatable=0;points=[[0,0.5],[1,0.5]];portConstraint=eastwest;whiteSpace=wrap;html=1;" vertex="1" parent="psiIoG4BXNIrnxoSM1xr-1">
          <mxGeometry y="530" width="210" height="26" as="geometry" />
        </mxCell>
        <mxCell id="psiIoG4BXNIrnxoSM1xr-29" value="+ listar_emprestimo()&lt;div&gt;&lt;br&gt;&lt;/div&gt;" style="text;strokeColor=none;fillColor=none;align=left;verticalAlign=top;spacingLeft=4;spacingRight=4;overflow=hidden;rotatable=0;points=[[0,0.5],[1,0.5]];portConstraint=eastwest;whiteSpace=wrap;html=1;" vertex="1" parent="psiIoG4BXNIrnxoSM1xr-1">
          <mxGeometry y="556" width="210" height="26" as="geometry" />
        </mxCell>
        <mxCell id="psiIoG4BXNIrnxoSM1xr-30" value="+ deletar_emprestimo()&lt;div&gt;&lt;br&gt;&lt;/div&gt;" style="text;strokeColor=none;fillColor=none;align=left;verticalAlign=top;spacingLeft=4;spacingRight=4;overflow=hidden;rotatable=0;points=[[0,0.5],[1,0.5]];portConstraint=eastwest;whiteSpace=wrap;html=1;" vertex="1" parent="psiIoG4BXNIrnxoSM1xr-1">
          <mxGeometry y="582" width="210" height="26" as="geometry" />
        </mxCell>
        <mxCell id="psiIoG4BXNIrnxoSM1xr-31" value="+ associar_livro_autor()&lt;div&gt;&lt;br&gt;&lt;/div&gt;" style="text;strokeColor=none;fillColor=none;align=left;verticalAlign=top;spacingLeft=4;spacingRight=4;overflow=hidden;rotatable=0;points=[[0,0.5],[1,0.5]];portConstraint=eastwest;whiteSpace=wrap;html=1;" vertex="1" parent="psiIoG4BXNIrnxoSM1xr-1">
          <mxGeometry y="608" width="210" height="26" as="geometry" />
        </mxCell>
        <mxCell id="psiIoG4BXNIrnxoSM1xr-32" value="+ listar_associacoes()&lt;div&gt;&lt;br&gt;&lt;/div&gt;" style="text;strokeColor=none;fillColor=none;align=left;verticalAlign=top;spacingLeft=4;spacingRight=4;overflow=hidden;rotatable=0;points=[[0,0.5],[1,0.5]];portConstraint=eastwest;whiteSpace=wrap;html=1;" vertex="1" parent="psiIoG4BXNIrnxoSM1xr-1">
          <mxGeometry y="634" width="210" height="26" as="geometry" />
        </mxCell>
        <mxCell id="psiIoG4BXNIrnxoSM1xr-33" value="+ deletar_associacao()&lt;div&gt;&lt;br&gt;&lt;/div&gt;" style="text;strokeColor=none;fillColor=none;align=left;verticalAlign=top;spacingLeft=4;spacingRight=4;overflow=hidden;rotatable=0;points=[[0,0.5],[1,0.5]];portConstraint=eastwest;whiteSpace=wrap;html=1;" vertex="1" parent="psiIoG4BXNIrnxoSM1xr-1">
          <mxGeometry y="660" width="210" height="26" as="geometry" />
        </mxCell>
      </root>
    </mxGraphModel>
  </diagram>
</mxfile>
